<svg width="164" height="94" viewBox="0 0 164 94" fill="none" xmlns="http://www.w3.org/2000/svg">
<path d="M41.6504 93.6602C29.4759 93.6602 19.5703 89.6758 11.9336 81.707C4.29688 73.6829 0.478516 62.9749 0.478516 49.583V46.7607C0.478516 37.8512 2.16634 29.9102 5.54199 22.9375C8.97298 15.9095 13.7321 10.431 19.8193 6.50195C25.9619 2.51758 32.6025 0.525391 39.7412 0.525391C51.4176 0.525391 60.4932 4.37142 66.9678 12.0635C73.4424 19.7555 76.6797 30.7679 76.6797 45.1006V51.4922H15.835C16.0563 60.3464 18.6296 67.5127 23.5547 72.9912C28.5352 78.4144 34.8438 81.126 42.4805 81.126C47.9036 81.126 52.4967 80.0192 56.2598 77.8057C60.0228 75.5921 63.3154 72.6592 66.1377 69.0068L75.5176 76.3115C67.9915 87.8773 56.7025 93.6602 41.6504 93.6602ZM39.7412 13.1426C33.5433 13.1426 28.3415 15.4115 24.1357 19.9492C19.93 24.4316 17.3291 30.7402 16.333 38.875H61.3232V37.7129C60.8805 29.9102 58.7777 23.8783 55.0146 19.6172C51.2516 15.3008 46.1605 13.1426 39.7412 13.1426ZM124.658 34.9736L144.58 2.18555H162.51L133.125 46.5947L163.423 92H145.659L124.907 58.3818L104.155 92H86.3086L116.606 46.5947L87.2217 2.18555H104.985L124.658 34.9736Z" fill="white"/>
</svg>
