<svg width="476" height="476" viewBox="0 0 476 476" fill="none" xmlns="http://www.w3.org/2000/svg">
<mask id="path-2-inside-1" fill="white">
<path fill-rule="evenodd" clip-rule="evenodd" d="M118.702 475.36C46.6154 421.117 0 334.843 0 237.68C0 140.518 46.6154 54.2429 118.702 0C190.788 54.2429 237.403 140.518 237.403 237.68C237.403 334.843 190.788 421.117 118.702 475.36Z"/>
</mask>
<path fill-rule="evenodd" clip-rule="evenodd" d="M118.702 475.36C46.6154 421.117 0 334.843 0 237.68C0 140.518 46.6154 54.2429 118.702 0C190.788 54.2429 237.403 140.518 237.403 237.68C237.403 334.843 190.788 421.117 118.702 475.36Z" transform="translate(0.4375 356.598) rotate(-90)" fill="url(#paint0_linear)"/>
<path d="M118.702 475.36L117.499 476.958L118.702 477.863L119.904 476.958L118.702 475.36ZM118.702 0L119.904 -1.5981L118.702 -2.50297L117.499 -1.5981L118.702 0ZM119.904 473.762C48.2984 419.881 2 334.188 2 237.68H-2C-2 335.498 44.9323 422.354 117.499 476.958L119.904 473.762ZM2 237.68C2 141.173 48.2984 55.4795 119.904 1.5981L117.499 -1.5981C44.9323 53.0064 -2 139.863 -2 237.68H2ZM117.499 1.5981C189.105 55.4795 235.403 141.173 235.403 237.68H239.403C239.403 139.863 192.471 53.0064 119.904 -1.5981L117.499 1.5981ZM235.403 237.68C235.403 334.188 189.105 419.881 117.499 473.762L119.904 476.958C192.471 422.354 239.403 335.498 239.403 237.68H235.403Z" transform="translate(0.4375 356.598) rotate(-90)" fill="black" mask="url(#path-2-inside-1)"/>
<mask id="path-4-inside-2" fill="white">
<path fill-rule="evenodd" clip-rule="evenodd" d="M118.702 475.361C190.788 421.118 237.403 334.843 237.403 237.68C237.403 140.518 190.788 54.2429 118.702 0C46.6155 54.2429 0 140.518 0 237.68C0 334.843 46.6155 421.118 118.702 475.361Z"/>
</mask>
<path fill-rule="evenodd" clip-rule="evenodd" d="M118.702 475.361C190.788 421.118 237.403 334.843 237.403 237.68C237.403 140.518 190.788 54.2429 118.702 0C46.6155 54.2429 0 140.518 0 237.68C0 334.843 46.6155 421.118 118.702 475.361Z" transform="translate(120.051 0.32605)" fill="url(#paint1_linear)"/>
<path d="M118.702 475.361L117.499 476.959L118.702 477.864L119.904 476.959L118.702 475.361ZM118.702 0L119.904 -1.5981L118.702 -2.50297L117.499 -1.5981L118.702 0ZM235.403 237.68C235.403 334.188 189.105 419.881 117.499 473.762L119.904 476.959C192.471 422.354 239.403 335.498 239.403 237.68H235.403ZM117.499 1.5981C189.105 55.4795 235.403 141.173 235.403 237.68H239.403C239.403 139.863 192.471 53.0064 119.904 -1.5981L117.499 1.5981ZM2 237.68C2 141.173 48.2985 55.4795 119.904 1.5981L117.499 -1.5981C44.9325 53.0064 -2 139.863 -2 237.68H2ZM119.904 473.762C48.2985 419.881 2 334.188 2 237.68H-2C-2 335.498 44.9325 422.354 117.499 476.959L119.904 473.762Z" transform="translate(120.051 0.32605)" fill="black" mask="url(#path-4-inside-2)"/>
<mask id="path-6-inside-3" fill="white">
<path fill-rule="evenodd" clip-rule="evenodd" d="M118.702 0C190.788 54.2428 237.403 140.518 237.403 237.68C237.403 334.843 190.788 421.118 118.702 475.361C46.6153 421.118 8.19034e-06 334.843 1.437e-10 237.68C-9.45068e-05 140.518 46.6153 54.2428 118.702 0Z"/>
</mask>
<path fill-rule="evenodd" clip-rule="evenodd" d="M118.702 0C190.788 54.2428 237.403 140.518 237.403 237.68C237.403 334.843 190.788 421.118 118.702 475.361C46.6153 421.118 8.19034e-06 334.843 1.437e-10 237.68C-9.45068e-05 140.518 46.6153 54.2428 118.702 0Z" transform="translate(-14 153.869) rotate(-45)" fill="url(#paint2_linear)"/>
<path d="M118.702 0L119.904 -1.5981L118.702 -2.50297L117.499 -1.5981L118.702 0ZM237.403 237.68L235.403 237.68L235.403 237.68L237.403 237.68ZM118.702 475.361L117.499 476.959L118.702 477.864L119.904 476.959L118.702 475.361ZM1.437e-10 237.68L2 237.68L2 237.68L1.437e-10 237.68ZM117.499 1.5981C189.105 55.4794 235.403 141.173 235.403 237.68L239.403 237.68C239.403 139.863 192.471 53.0063 119.904 -1.5981L117.499 1.5981ZM235.403 237.68C235.403 334.188 189.105 419.881 117.499 473.762L119.904 476.959C192.471 422.354 239.403 335.498 239.403 237.68L235.403 237.68ZM119.904 473.762C48.2983 419.881 2.00001 334.188 2 237.68L-2 237.68C-1.99999 335.498 44.9323 422.354 117.499 476.959L119.904 473.762ZM2 237.68C1.99991 141.173 48.2984 55.4794 119.904 1.5981L117.499 -1.5981C44.9323 53.0063 -2.0001 139.863 -2 237.68L2 237.68Z" transform="translate(-14 153.869) rotate(-45)" fill="black" mask="url(#path-6-inside-3)"/>
<mask id="path-8-inside-4" fill="white">
<path fill-rule="evenodd" clip-rule="evenodd" d="M118.701 475.36C190.788 421.117 237.403 334.843 237.403 237.68C237.403 140.518 190.788 54.2429 118.702 0C46.6154 54.2428 9.45069e-05 140.518 0 237.68C7.81266e-05 334.843 46.6154 421.117 118.701 475.36Z"/>
</mask>
<path fill-rule="evenodd" clip-rule="evenodd" d="M118.701 475.36C190.788 421.117 237.403 334.843 237.403 237.68C237.403 140.518 190.788 54.2429 118.702 0C46.6154 54.2428 9.45069e-05 140.518 0 237.68C7.81266e-05 334.843 46.6154 421.117 118.701 475.36Z" transform="translate(322.13 -14.0001) rotate(45)" fill="url(#paint3_linear)"/>
<path d="M237.403 237.68L239.403 237.68L239.403 237.68L237.403 237.68ZM118.701 475.36L117.499 476.958L118.701 477.863L119.904 476.958L118.701 475.36ZM118.702 0L119.904 -1.5981L118.702 -2.50297L117.499 -1.5981L118.702 0ZM0 237.68L-2 237.68L-2 237.68L0 237.68ZM235.403 237.68C235.403 334.188 189.105 419.881 117.499 473.762L119.904 476.958C192.471 422.354 239.403 335.498 239.403 237.68L235.403 237.68ZM117.499 1.5981C189.105 55.4794 235.403 141.173 235.403 237.68L239.403 237.68C239.403 139.863 192.471 53.0064 119.904 -1.5981L117.499 1.5981ZM2 237.68C2.00009 141.173 48.2984 55.4794 119.904 1.5981L117.499 -1.5981C44.9324 53.0063 -1.9999 139.863 -2 237.68L2 237.68ZM119.904 473.762C48.2985 419.881 2.00008 334.188 2 237.68L-2 237.68C-1.99992 335.498 44.9324 422.354 117.499 476.958L119.904 473.762Z" transform="translate(322.13 -14.0001) rotate(45)" fill="black" mask="url(#path-8-inside-4)"/>
<mask id="path-10-inside-5" fill="white">
<path fill-rule="evenodd" clip-rule="evenodd" d="M17.6256 219.778C49.1785 231.185 83.2137 237.403 118.702 237.403C154.189 237.403 188.224 231.185 219.777 219.778C231.184 188.225 237.403 154.19 237.403 118.701C237.403 83.2135 231.184 49.1781 219.777 17.6255C188.225 6.21861 154.189 2.99237e-06 118.701 9.61933e-10C83.2136 -8.93072e-05 49.1782 6.21851 17.6254 17.6254C6.21851 49.1782 -8.93072e-05 83.2136 9.61933e-10 118.701C-8.33244e-05 154.189 6.21861 188.225 17.6256 219.778Z"/>
</mask>
<path fill-rule="evenodd" clip-rule="evenodd" d="M17.6256 219.778C49.1785 231.185 83.2137 237.403 118.702 237.403C154.189 237.403 188.224 231.185 219.777 219.778C231.184 188.225 237.403 154.19 237.403 118.701C237.403 83.2135 231.184 49.1781 219.777 17.6255C188.225 6.21861 154.189 2.99237e-06 118.701 9.61933e-10C83.2136 -8.93072e-05 49.1782 6.21851 17.6254 17.6254C6.21851 49.1782 -8.93072e-05 83.2136 9.61933e-10 118.701C-8.33244e-05 154.189 6.21861 188.225 17.6256 219.778Z" transform="translate(405.648 237.779) rotate(135)" fill="url(#paint4_linear)"/>
<path d="M17.6256 219.778L15.7448 220.458L16.0636 221.34L16.9457 221.659L17.6256 219.778ZM118.702 237.403L118.702 239.403L118.702 239.403L118.702 237.403ZM219.777 219.778L220.457 221.659L221.339 221.34L221.658 220.458L219.777 219.778ZM237.403 118.701L235.403 118.701L235.403 118.701L237.403 118.701ZM219.777 17.6255L221.658 16.9455L221.339 16.0635L220.457 15.7446L219.777 17.6255ZM118.701 9.61933e-10L118.701 2L118.701 2L118.701 9.61933e-10ZM17.6254 17.6254L16.9454 15.7445L16.0634 16.0634L15.7445 16.9454L17.6254 17.6254ZM9.61933e-10 118.701L2 118.701L2 118.701L9.61933e-10 118.701ZM16.9457 221.659C48.7134 233.143 82.9785 239.403 118.702 239.403L118.702 235.403C83.4488 235.403 49.6435 229.226 18.3056 217.897L16.9457 221.659ZM118.702 239.403C154.424 239.403 188.69 233.143 220.457 221.659L219.097 217.897C187.759 229.226 153.954 235.403 118.702 235.403L118.702 239.403ZM235.403 118.701C235.403 153.954 229.226 187.76 217.896 219.098L221.658 220.458C233.143 188.69 239.403 154.425 239.403 118.701L235.403 118.701ZM217.896 18.3054C229.226 49.6432 235.403 83.4487 235.403 118.701L239.403 118.701C239.403 82.9783 233.143 48.713 221.658 16.9455L217.896 18.3054ZM220.457 15.7446C188.69 4.26006 154.424 -2 118.701 -2L118.701 2C153.954 2 187.76 8.17716 219.097 19.5063L220.457 15.7446ZM118.701 -2C82.9784 -2.00009 48.7131 4.25996 16.9454 15.7445L18.3053 19.5062C49.6432 8.17706 83.4487 1.99991 118.701 2L118.701 -2ZM2 118.701C1.99991 83.4487 8.17706 49.6432 19.5062 18.3053L15.7445 16.9454C4.25996 48.7131 -2.00009 82.9784 -2 118.701L2 118.701ZM19.5065 219.098C8.17716 187.76 1.99992 153.954 2 118.701L-2 118.701C-2.00008 154.425 4.26006 188.69 15.7448 220.458L19.5065 219.098Z" transform="translate(405.648 237.779) rotate(135)" fill="black" mask="url(#path-10-inside-5)"/>
<path fill-rule="evenodd" clip-rule="evenodd" d="M72.0193 0V56H88.0193V24H96.0193V40H104.019V24H112.019V56H128.019V0H112.019V8H104.019V16H96.0193V8H88.0193V0H72.0193ZM72.0193 80V120H88.0193V104H112.019V120H128.019V80H120.019V72H112.019V64H88.0193V72H80.0193V80H72.0193ZM112.019 96H88.0193V80H96.0193V72H104.019V80H112.019V96ZM147.463 94.7498L196.545 26.041L193.817 24.7938L144.734 93.5026L147.463 94.7498ZM0.821045 62.8636L35.8799 30.6125L35.0588 30.0416L0 62.2926L0.821045 62.8636ZM0.821045 62.8636L1.60938 62.2484L36.6682 90.9939L35.8799 91.6091L0.821045 62.8636ZM205.921 30.6125L240.979 62.8636L240.191 62.2484L205.132 90.9939L205.921 91.6091L240.979 62.8636L241.801 62.2926L206.742 30.0416L205.921 30.6125Z" transform="translate(120.07 177.611)" fill="black" stroke="black" stroke-width="3"/>
<defs>
<linearGradient id="paint0_linear" x2="1" gradientUnits="userSpaceOnUse" gradientTransform="translate(237.403) scale(237.403 475.36) rotate(90)">
<stop offset="0.254144" stop-color="#BB6BD9"/>
<stop offset="1" stop-color="#FFC0CB"/>
</linearGradient>
<linearGradient id="paint1_linear" x2="1" gradientUnits="userSpaceOnUse" gradientTransform="translate(237.403) scale(237.403 475.361) rotate(90)">
<stop stop-color="#FFC0CB"/>
<stop offset="0.740331" stop-color="#BB6BD9"/>
</linearGradient>
<linearGradient id="paint2_linear" x2="1" gradientUnits="userSpaceOnUse" gradientTransform="translate(234.473 307.959) scale(233.715 116.721) rotate(180)">
<stop stop-color="#FFC0CB"/>
<stop offset="1" stop-color="#BB6BD9"/>
</linearGradient>
<linearGradient id="paint3_linear" x2="1" gradientUnits="userSpaceOnUse" gradientTransform="translate(237.403) scale(237.403 475.36) rotate(90)">
<stop stop-color="#FFC0CB"/>
<stop offset="0.723757" stop-color="#BB6BD9"/>
</linearGradient>
<linearGradient id="paint4_linear" x2="1" gradientUnits="userSpaceOnUse" gradientTransform="translate(234.111 242.504) scale(230.82 230.821) rotate(-180)">
<stop stop-color="#BB6BD9"/>
<stop offset="1" stop-color="#FFC0CB"/>
</linearGradient>
</defs>
</svg>
